<?xml version="1.0" encoding="UTF-8" standalone="no"?>
<!-- Created with Inkscape (http://www.inkscape.org/) -->

<svg
   width="300mm"
   height="300mm"
   viewBox="0 0 300 300"
   version="1.1"
   id="svg1"
   inkscape:version="1.3 (0e150ed6c4, 2023-07-21)"
   sodipodi:docname="logo.svg"
   inkscape:export-filename="logo.png"
   inkscape:export-xdpi="96"
   inkscape:export-ydpi="96"
   xmlns:inkscape="http://www.inkscape.org/namespaces/inkscape"
   xmlns:sodipodi="http://sodipodi.sourceforge.net/DTD/sodipodi-0.dtd"
   xmlns="http://www.w3.org/2000/svg"
   xmlns:svg="http://www.w3.org/2000/svg">
  <sodipodi:namedview
     id="namedview1"
     pagecolor="#ffffff"
     bordercolor="#000000"
     borderopacity="0.25"
     inkscape:showpageshadow="2"
     inkscape:pageopacity="0.0"
     inkscape:pagecheckerboard="0"
     inkscape:deskcolor="#d1d1d1"
     inkscape:document-units="mm"
     inkscape:zoom="1.7291456"
     inkscape:cx="287.42518"
     inkscape:cy="571.66961"
     inkscape:window-width="3840"
     inkscape:window-height="2137"
     inkscape:window-x="1432"
     inkscape:window-y="224"
     inkscape:window-maximized="1"
     inkscape:current-layer="layer1" />
  <defs
     id="defs1" />
  <g
     inkscape:label="Layer 1"
     inkscape:groupmode="layer"
     id="layer1">
    <circle
       style="fill:#000000;stroke-width:0.264583"
       id="path1"
       cx="150"
       cy="150"
       r="100.62337" />
    <circle
       style="fill:#dde74b;fill-opacity:1;stroke-width:0.217012"
       id="path1-6-2-6"
       cx="150"
       cy="150"
       r="82.531624" />
    <circle
       style="fill:#524be7;fill-opacity:1;stroke-width:0.208844"
       id="path1-6-2"
       cx="150"
       cy="150"
       r="79.425331" />
    <circle
       style="fill:#cecece;fill-opacity:1;stroke-width:0.148694"
       id="path1-6"
       cx="150"
       cy="150"
       r="56.549763" />
    <rect
       style="fill:#cecece;fill-opacity:1;stroke-width:0.304331"
       id="rect2-2"
       width="12.334478"
       height="60.217888"
       x="202.80739"
       y="69.629829"
       transform="rotate(37.079724)" />
    <rect
       style="fill:#cecece;fill-opacity:1;stroke-width:0.304331"
       id="rect2-2-4"
       width="12.334478"
       height="60.217888"
       x="-34.04895"
       y="250.5049"
       transform="matrix(-0.79779734,0.6029257,0.6029257,0.79779734,0,0)" />
    <circle
       style="fill:#000000;fill-opacity:1;stroke-width:0.0628739"
       id="path1-6-3"
       cx="149.8701"
       cy="151.44012"
       r="23.91157" />
    <path
       d="m 193.41567,60.509302 a 44.169708,7.1833181 0 0 1 -7.92576,-0.126979 44.169708,7.1833181 0 0 1 -8.28576,-0.408787 44.169708,7.1833181 0 0 1 -7.63654,-0.663777 44.169708,7.1833181 0 0 1 -6.69334,-0.893348 44.169708,7.1833181 0 0 1 -5.4929,-1.088539 44.169708,7.1833181 0 0 1 -4.08178,-1.241894 44.169708,7.1833181 0 0 1 -2.51359,-1.347549 44.169708,7.1833181 0 0 1 -0.76195,-1.258461 44.169708,7.1833181 0 0 1 -0.78056,1.288525 44.169708,7.1833181 0 0 1 -2.51339,1.347551 44.169708,7.1833181 0 0 1 -4.08174,1.241894 44.169708,7.1833181 0 0 1 -5.49315,1.088537 44.169708,7.1833181 0 0 1 -6.69334,0.893313 44.169708,7.1833181 0 0 1 -7.63631,0.663815 44.169708,7.1833181 0 0 1 -8.28597,0.408786 44.169708,7.1833181 0 0 1 -7.95526,0.127422 44.169708,7.1833181 0 0 1 2.29245,0.01274 44.169708,7.1833181 0 0 1 3.00039,0.05018 44.169708,7.1833181 0 0 1 2.97205,0.08334 44.169708,7.1833181 0 0 1 2.93032,0.116133 44.169708,7.1833181 0 0 1 2.87472,0.148376 44.169708,7.1833181 0 0 1 2.80555,0.179951 44.169708,7.1833181 0 0 1 2.72366,0.210647 44.169708,7.1833181 0 0 1 2.62906,0.240381 44.169708,7.1833181 0 0 1 2.52178,0.269046 44.169708,7.1833181 0 0 1 2.40336,0.296344 44.169708,7.1833181 0 0 1 2.27314,0.322354 44.169708,7.1833181 0 0 1 2.13252,0.346847 44.169708,7.1833181 0 0 1 1.98213,0.369684 44.169708,7.1833181 0 0 1 1.82242,0.39082 44.169708,7.1833181 0 0 1 1.65411,0.410153 44.169708,7.1833181 0 0 1 1.47831,0.427528 44.169708,7.1833181 0 0 1 1.29526,0.442949 44.169708,7.1833181 0 0 1 1.10653,0.456304 44.169708,7.1833181 0 0 1 0.91234,0.467518 44.169708,7.1833181 0 0 1 0.71409,0.476554 44.169708,7.1833181 0 0 1 0.51242,0.483346 44.169708,7.1833181 0 0 1 0.30849,0.487917 44.169708,7.1833181 0 0 1 0.0918,0.438301 44.169708,7.1833181 0 0 0 0.0488,8.84e-4 44.169708,7.1833181 0 0 1 0.84181,-1.389863 44.169708,7.1833181 0 0 1 2.51337,-1.347549 44.169708,7.1833181 0 0 1 4.08175,-1.241894 44.169708,7.1833181 0 0 1 5.49315,-1.08854 44.169708,7.1833181 0 0 1 6.69335,-0.89335 44.169708,7.1833181 0 0 1 7.63631,-0.663812 44.169708,7.1833181 0 0 1 8.28597,-0.408752 44.169708,7.1833181 0 0 1 7.7999,-0.124948 z"
       style="fill:#ff0101;fill-opacity:1;stroke-width:0.0468369"
       id="path2" />
  </g>
</svg>
